<?xml version="1.0" encoding="iso-8859-1"?>
<!-- Generator: Adobe Illustrator 16.0.0, SVG Export Plug-In . SVG Version: 6.00 Build 0)  -->
<!DOCTYPE svg PUBLIC "-//W3C//DTD SVG 1.1//EN" "http://www.w3.org/Graphics/SVG/1.1/DTD/svg11.dtd">
<svg version="1.1" xmlns="http://www.w3.org/2000/svg" xmlns:xlink="http://www.w3.org/1999/xlink" x="0px" y="0px" width="64px"
	 height="61.064px" viewBox="0 0 64 61.064" style="enable-background:new 0 0 64 61.064;" xml:space="preserve">
<g id="iconos_-_IE_Tour_Virtual">
	<g>
		<rect x="-1113.287" y="0.737" style="fill:none;stroke:#F2EA38;stroke-miterlimit:10;" width="56.654" height="56.654"/>
		<g>
			<path d="M-1065.673,17.172c-1.242-1.252-2.897-1.943-4.66-1.95l-3.553-0.013c1.283-0.251,2.464-0.874,3.412-1.816
				c1.268-1.257,1.967-2.934,1.975-4.718c0.008-2.53-1.382-4.817-3.631-5.974c-0.931-0.479-1.979-0.733-3.027-0.735
				c-1.787-0.009-3.469,0.681-4.736,1.938c-1.267,1.259-1.967,2.934-1.974,4.72c-0.011,2.528,1.381,4.817,3.632,5.974
				c0.602,0.309,1.258,0.487,1.926,0.602l-3.771-0.014c-3.64-0.011-6.611,2.941-6.625,6.582l-0.049,13.285
				c-0.006,1.762,0.676,3.422,1.919,4.674c0.496,0.501,1.06,0.912,1.67,1.228c0.447,0.229,0.919,0.402,1.407,0.522l-0.032,9.082
				c-0.004,1.481,0.568,2.875,1.61,3.924c0.418,0.42,0.89,0.765,1.4,1.027c0.769,0.396,1.624,0.605,2.51,0.608l1.814,0.007
				c3.055,0.011,5.547-2.465,5.558-5.519l0.032-9.097c1.164-0.275,2.24-0.848,3.111-1.715c1.253-1.242,1.946-2.896,1.951-4.661
				l0.049-13.285C-1063.75,20.083-1064.428,18.424-1065.673,17.172z M-1078.699,8.636c0.003-0.938,0.373-1.82,1.037-2.483
				c0.668-0.66,1.551-1.023,2.49-1.02c0.563,0.001,1.1,0.131,1.594,0.387c1.183,0.607,1.914,1.81,1.908,3.142
				c-0.003,0.938-0.373,1.82-1.037,2.483c-0.667,0.66-1.553,1.023-2.491,1.02C-1077.101,12.157-1078.706,10.521-1078.699,8.636z
				 M-1066.973,35.122c-0.002,0.917-0.363,1.777-1.013,2.424c-0.65,0.647-1.515,0.999-2.432,0.997c-0.002,0-0.006,0.002-0.008,0.002
				c-0.006,0-0.01-0.003-0.016-0.003c-0.874-0.003-1.588,0.705-1.59,1.58l-0.035,10.472c-0.006,1.306-1.072,2.365-2.38,2.362
				l-1.815-0.009c-0.629,0-1.228-0.251-1.672-0.698c-0.444-0.45-0.691-1.046-0.689-1.677l0.038-10.475
				c0.003-0.878-0.705-1.591-1.577-1.591l0,0h-0.002c-1.891-0.003-3.428-1.549-3.423-3.443l0.048-13.284
				c0.008-1.895,1.553-3.43,3.446-3.425l9.747,0.036c0.917,0.003,1.778,0.363,2.422,1.015c0.647,0.65,1.002,1.513,0.998,2.431
				L-1066.973,35.122z"/>
			<path d="M-1092.98,23.018l-2.875-0.01c1.038-0.204,1.993-0.708,2.76-1.47c1.027-1.019,1.594-2.375,1.599-3.819
				c0.009-2.047-1.118-3.898-2.938-4.835c-0.754-0.388-1.602-0.595-2.452-0.597c-1.445-0.005-2.807,0.553-3.831,1.572
				c-1.025,1.017-1.593,2.374-1.598,3.817c-0.01,2.049,1.117,3.901,2.939,4.838c0.485,0.25,1.014,0.394,1.553,0.486l-3.045-0.011
				c-2.947-0.009-5.355,2.381-5.365,5.327l-0.038,10.755c-0.007,2.075,1.178,3.882,2.909,4.772c0.356,0.184,0.738,0.327,1.136,0.425
				l-0.026,7.352c-0.004,1.201,0.457,2.328,1.301,3.178c0.338,0.339,0.722,0.619,1.137,0.832c0.619,0.318,1.311,0.489,2.029,0.489
				l1.47,0.007c2.473,0.008,4.49-1.996,4.497-4.467l0.025-7.36c0.943-0.228,1.814-0.69,2.52-1.39
				c1.016-1.009,1.575-2.347,1.578-3.773l0.042-10.754C-1087.646,25.437-1090.031,23.028-1092.98,23.018z M-1099.75,17.686
				c0.001-0.759,0.3-1.473,0.838-2.007c0.539-0.536,1.257-0.828,2.016-0.827c0.455,0.002,0.889,0.106,1.289,0.313
				c0.959,0.491,1.55,1.466,1.547,2.543c-0.004,0.759-0.301,1.473-0.841,2.009c-0.541,0.536-1.257,0.83-2.016,0.827
				C-1098.46,20.539-1099.757,19.214-1099.75,17.686z M-1090.26,39.127c-0.001,0.74-0.294,1.438-0.821,1.96s-1.226,0.81-1.968,0.808
				c-0.003,0-0.005,0.002-0.009,0.002s-0.006-0.002-0.01-0.002c-0.709-0.002-1.285,0.57-1.288,1.277l-0.03,8.477
				c-0.003,1.057-0.865,1.914-1.922,1.912l-1.47-0.006c-0.509-0.002-0.992-0.201-1.354-0.566c-0.36-0.362-0.559-0.847-0.557-1.358
				l0.029-8.478c0.003-0.709-0.571-1.284-1.278-1.287c-1.533-0.004-2.775-1.256-2.77-2.787l0.038-10.753
				c0.005-1.533,1.257-2.776,2.79-2.773l7.891,0.032c1.531,0.004,2.772,1.255,2.768,2.787L-1090.26,39.127z"/>
		</g>
	</g>
	<g>
		<g>
			<path d="M-1008.726,36.367c-1.035,0-2.338,0.674-3.057,1.308c-0.719-0.634-2.025-1.308-3.057-1.308
				c-2.254,0-3.713,2.242-3.719,4.081c-0.016,3.386,6.775,7.567,6.775,7.567s6.789-4.182,6.775-7.567
				C-1005.015,38.609-1006.474,36.367-1008.726,36.367z"/>
			<path d="M-1008.744,15.602c-0.975-0.501-2.07-0.768-3.17-0.771c-1.871-0.009-3.631,0.713-4.957,2.03
				c-1.328,1.318-2.061,3.072-2.068,4.941c-0.01,2.647,1.447,5.043,3.803,6.254c0.975,0.501,2.068,0.768,3.17,0.771
				c1.871,0.009,3.631-0.714,4.957-2.031c1.326-1.316,2.061-3.073,2.068-4.941C-1004.933,19.207-1006.388,16.813-1008.744,15.602z
				 M-1009.345,24.442c-0.699,0.692-1.627,1.072-2.609,1.069c-1.994-0.01-3.674-1.722-3.666-3.695
				c0.004-0.984,0.391-1.907,1.086-2.6c0.699-0.691,1.623-1.072,2.607-1.068c0.588,0.001,1.15,0.138,1.668,0.405
				c1.238,0.636,2.004,1.896,2,3.289C-1008.263,22.826-1008.652,23.749-1009.345,24.442z"/>
			<path d="M-1011.939,8.44c-13.146,0-23.84,10.696-23.84,23.842c0,13.147,10.693,23.843,23.84,23.843s23.838-10.695,23.838-23.843
				C-988.101,19.136-998.792,8.44-1011.939,8.44z M-1022.123,50.271l0.049-12.68c0.016-5.055,2.291-5.021,3.221-5.044l12.057,0.036
				c1.355,0.008,2.623,0.536,3.576,1.5c0.953,0.955,1.473,2.226,1.469,3.58l-0.047,12.632c-3,1.696-6.455,2.676-10.141,2.676
				C-1015.642,52.972-1019.113,51.981-1022.123,50.271z M-998.087,47.605l0.043-9.927c0.008-2.347-0.896-4.552-2.545-6.21
				c-1.65-1.662-3.848-2.582-6.191-2.591l-12.061-0.037c-0.008,0-0.014,0-0.023,0c-2.09,0-6.893,0.862-6.916,8.737l-0.045,9.998
				c-4.166-3.787-6.803-9.23-6.803-15.293c0-11.409,9.281-20.69,20.689-20.69s20.688,9.281,20.688,20.69
				C-991.251,38.361-993.902,43.817-998.087,47.605z"/>
		</g>
	</g>
	<g>
		<g>
			<path d="M-935.477,5.172c-8.793,0-15.917,7.125-15.917,15.915c0,4.864,2.18,9.211,5.614,12.131v4.911
				c0,1.378,1.119,2.497,2.497,2.497h0.373v6.616c0,1.378,1.12,2.494,2.496,2.494h0.625v0.25c0,1.378,1.118,2.497,2.5,2.497h3.994
				c1.378,0,2.496-1.119,2.496-2.497v-0.25h0.25c1.378,0,2.495-1.116,2.495-2.494v-6.616h0.376c1.38,0,2.497-1.119,2.497-2.497
				v-4.911c3.435-2.92,5.613-7.267,5.613-12.129C-919.566,12.297-926.69,5.172-935.477,5.172z M-927.962,30.904v4.852
				c0,1.38-1.121,2.496-2.495,2.496h-9.864c-1.375,0-2.492-1.116-2.492-2.496v-4.852c-2.996-2.301-4.928-5.952-4.928-10.065
				c0-6.958,5.53-12.597,12.35-12.597c6.824,0,12.357,5.639,12.357,12.597C-923.034,24.952-924.97,28.604-927.962,30.904z"/>
			<path d="M-934.792,10.414c-5.861,0.002-10.612,4.753-10.612,10.612c0,0.55,0.445,0.998,0.997,0.998
				c0.553,0,1.002-0.445,1.002-0.998c0-2.383,0.961-4.529,2.521-6.093c1.563-1.56,3.711-2.521,6.092-2.521
				c0.549,0,0.995-0.447,0.995-1C-933.797,10.862-934.243,10.414-934.792,10.414z"/>
		</g>
	</g>
	<g>
		<path d="M-863.411,5.223c-13.145,0-23.84,10.695-23.84,23.84c0,13.148,10.695,23.843,23.84,23.843
			c13.145,0,23.84-10.695,23.84-23.843C-839.571,15.918-850.266,5.223-863.411,5.223z M-846.547,17.119
			c-0.975,0.287-2.01,0.653-2.936,1.346c-1.246,0.929-2.082,2.362-2.77,3.633c-0.482,0.891-0.699,1.829-0.891,2.658
			c-0.08,0.34-0.156,0.679-0.254,1.01c-0.348,1.171-0.719,2.082-1.49,2.989c-0.465,0.548-0.99,1.046-1.516,1.547
			c-0.455,0.435-0.91,0.874-1.336,1.334l-0.85,0.929c-0.666,0.732-1.33,1.463-2.033,2.158l-0.656,0.66
			c-1.232,1.244-2.506,2.533-3.893,3.098c-0.18,0.074-0.293,0.105-0.732-0.057c-1.418-0.512-2.301-1.111-3.254-2.217
			c-0.389-0.451-0.836-0.869-1.289-1.285c-0.691-0.641-1.348-1.244-1.625-1.934c-0.402-0.995-0.338-2.219-0.266-3.516l0.029-0.554
			c0.039-0.84,0.273-1.698,0.521-2.608l0.098-0.356c0.051-0.192,0.098-0.398,0.141-0.604c0.07-0.306,0.18-0.818,0.291-0.92
			c0.174-0.138,0.924-0.148,1.281-0.155l0.828-0.019c2.41-0.058,4.898-0.116,7.369-0.895c1.98-0.624,2.736-2.093,3.447-3.472
			c0.752-1.46,1.52-4.743,2.375-8.564c0.115-0.521,0.223-1.002,0.318-1.421C-851.959,11.401-848.817,13.924-846.547,17.119z
			 M-863.411,49.752c-11.408,0-20.689-9.279-20.689-20.689c0-11.407,9.281-20.688,20.689-20.688c1.641,0,3.229,0.212,4.76,0.575
			c-0.111,0.483-0.238,1.052-0.381,1.688c-0.551,2.463-1.473,6.588-2.145,7.891c-0.621,1.208-0.879,1.615-1.551,1.827
			c-2.041,0.645-4.203,0.695-6.494,0.75l-0.801,0.018c-0.932,0.015-2.336,0.036-3.369,0.988c-0.843,0.776-1.071,1.811-1.233,2.567
			c-0.034,0.155-0.067,0.308-0.107,0.452l-0.094,0.348c-0.282,1.036-0.573,2.104-0.632,3.291l-0.024,0.529
			c-0.084,1.513-0.178,3.226,0.488,4.875c0.543,1.342,1.536,2.258,2.411,3.066c0.363,0.332,0.727,0.662,1.039,1.027
			c1.314,1.521,2.639,2.426,4.57,3.121c0.426,0.156,0.945,0.305,1.545,0.305c0.438,0,0.922-0.08,1.445-0.293
			c1.984-0.809,3.559-2.4,4.945-3.803l0.631-0.633c0.742-0.736,1.447-1.506,2.148-2.281l0.832-0.908
			c0.383-0.414,0.793-0.805,1.203-1.195c0.582-0.559,1.184-1.133,1.738-1.786c1.191-1.405,1.717-2.817,2.107-4.135
			c0.115-0.392,0.211-0.791,0.305-1.191c0.16-0.699,0.313-1.355,0.594-1.872c0.379-0.706,1.09-2.017,1.881-2.606
			c0.666-0.498,1.58-0.753,2.551-1.024c0.055-0.017,0.107-0.036,0.166-0.051c1.369,2.763,2.162,5.861,2.162,9.148
			C-842.719,40.473-852.002,49.752-863.411,49.752z"/>
	</g>
	<g>
		<g>
			<path d="M-775.937,39.254c2.738-5.111,8.434-15.753,2.301-19.44c-3.48-2.087-8.703-1.342-13.373,1.765l-0.453,0.303l-0.508,4.72
				l1.727-0.585c0.793-0.269,1.535-0.412,2.154-0.412c1.238,0,1.447,0.55,1.525,0.757c1,2.63-1.582,7.418-3.469,10.912
				c-0.826,1.541-1.609,2.992-2.068,4.173c-1.795,4.62-0.98,7.33,0.021,8.792c1.236,1.807,3.459,2.797,6.26,2.797
				c2.723,0,5.803-0.94,8.455-2.588l0.482-0.299l0.514-4.819l-1.641,0.445c-1.752,0.479-3.082,0.373-3.521-0.272
				c-0.215-0.319-0.604-1.355,0.479-4.053C-776.89,41.037-776.449,40.21-775.937,39.254z M-779.455,46.805
				c0.49,0.728,1.498,1.595,3.508,1.595c0.293,0,0.6-0.02,0.916-0.056l-0.043,0.412c-2.178,1.248-4.605,1.953-6.746,1.953
				c-2.012,0-3.551-0.635-4.34-1.786c-0.979-1.431-0.902-3.728,0.227-6.635c0.406-1.046,1.156-2.437,1.951-3.909
				c2.215-4.106,4.973-9.22,3.594-12.844c-0.555-1.456-1.867-2.257-3.701-2.257c-0.383,0-0.779,0.033-1.195,0.1l0.016-0.153
				c2.346-1.46,4.877-2.291,7.025-2.291c1.295,0,2.441,0.294,3.404,0.875c4.238,2.545-0.939,12.217-3.146,16.346
				c-0.59,1.101-1.016,1.897-1.229,2.431C-780.312,43.325-780.394,45.422-779.455,46.805z"/>
			<path d="M-774.001,5.093c-3.416,0-6.199,2.782-6.199,6.201c0,3.419,2.783,6.201,6.199,6.201c3.42,0,6.203-2.782,6.203-6.201
				C-767.798,7.875-770.582,5.093-774.001,5.093z M-774.001,15.169c-2.133,0-3.873-1.739-3.873-3.875
				c0-2.137,1.74-3.874,3.873-3.874c2.137,0,3.877,1.737,3.877,3.874C-770.125,13.431-771.865,15.169-774.001,15.169z"/>
		</g>
	</g>
	<g>
		<rect x="-386.807" y="0.5" style="fill:none;stroke:#F2EA38;stroke-miterlimit:10;" width="56.654" height="56.654"/>
		<path d="M-358.48,15.328c-7.456,0-13.5,6.043-13.5,13.5c0,7.456,6.044,13.5,13.5,13.5s13.501-6.045,13.501-13.5
			C-344.979,21.371-351.024,15.328-358.48,15.328z M-352.291,26.227c-0.715,4.102-4.708,7.574-5.908,8.369
			c-1.202,0.793-2.298-0.318-2.694-1.158c-0.455-0.959-1.818-6.152-2.176-6.583c-0.356-0.43-1.428,0.431-1.428,0.431l-0.52-0.694
			c0,0,2.175-2.646,3.83-2.977c1.755-0.352,1.753,2.744,2.175,4.465c0.408,1.662,0.683,2.613,1.039,2.613
			c0.357,0,1.039-0.927,1.785-2.349c0.748-1.423-0.032-2.68-1.493-1.786C-357.096,22.986-351.577,22.126-352.291,26.227z"/>
	</g>
	<g>
		<rect x="-474.48" y="3.956" style="fill:none;stroke:#F2EA38;stroke-miterlimit:10;" width="56.654" height="56.654"/>
		<path d="M-446.152,18.783c-7.457,0-13.5,6.043-13.5,13.5c0,7.455,6.043,13.5,13.5,13.5c7.455,0,13.5-6.045,13.5-13.5
			C-432.652,24.826-438.697,18.783-446.152,18.783z M-449.759,35.125c-1.539,0-2.787-1.271-2.787-2.842
			c0-1.571,1.248-2.843,2.787-2.843s2.789,1.272,2.789,2.843C-446.97,33.854-448.22,35.125-449.759,35.125z M-442.546,35.125
			c-1.539,0-2.789-1.271-2.789-2.842c0-1.571,1.25-2.843,2.789-2.843c1.541,0,2.789,1.272,2.789,2.843
			C-439.757,33.854-441.005,35.125-442.546,35.125z"/>
	</g>
	<g>
		<rect x="-554.806" y="3.956" style="fill:none;stroke:#F2EA38;stroke-miterlimit:10;" width="56.654" height="56.654"/>
		<path d="M-526.48,18.783c-7.455,0-13.5,6.043-13.5,13.5c0,7.455,6.045,13.5,13.5,13.5c7.456,0,13.5-6.045,13.5-13.5
			C-512.98,24.826-519.024,18.783-526.48,18.783z M-523.283,28.111h-2.029c-0.24,0-0.508,0.316-0.508,0.738v1.465h2.537v2.09h-2.537
			v6.273h-2.396v-6.273h-2.173v-2.09h2.173v-1.229c0-1.764,1.224-3.197,2.903-3.197h2.029V28.111z"/>
	</g>
	<g>
		<rect x="-642.48" y="3.956" style="fill:none;stroke:#F2EA38;stroke-miterlimit:10;" width="56.654" height="56.654"/>
		<path d="M-614.154,18.784c-7.456,0-13.5,6.043-13.5,13.5c0,7.455,6.044,13.5,13.5,13.5c7.457,0,13.5-6.045,13.5-13.5
			C-600.654,24.827-606.697,18.784-614.154,18.784z M-608.664,29.842c0.006,0.115,0.008,0.229,0.008,0.344
			c0,3.513-2.674,7.566-7.564,7.566c-1.502,0-2.898-0.441-4.076-1.195c0.208,0.025,0.42,0.037,0.635,0.037
			c1.246,0,2.393-0.424,3.303-1.139c-1.164-0.02-2.146-0.789-2.484-1.846c0.162,0.031,0.329,0.049,0.5,0.049
			c0.242,0,0.478-0.033,0.701-0.094c-1.217-0.244-2.133-1.32-2.133-2.607c0-0.012,0-0.023,0-0.033
			c0.357,0.198,0.769,0.318,1.204,0.332c-0.714-0.477-1.183-1.291-1.183-2.213c0-0.488,0.131-0.944,0.359-1.338
			c1.312,1.609,3.271,2.668,5.48,2.779c-0.045-0.195-0.068-0.398-0.068-0.606c0-1.468,1.19-2.659,2.658-2.659
			c0.766,0,1.456,0.323,1.941,0.84c0.605-0.119,1.175-0.34,1.688-0.645c-0.198,0.62-0.62,1.142-1.169,1.471
			c0.537-0.064,1.051-0.207,1.527-0.418C-607.693,29-608.143,29.467-608.664,29.842z"/>
	</g>
	<g>
		<polygon points="-688.237,25.074 -690.491,22.821 -694.481,26.811 -698.471,22.82 -700.725,25.075 -696.733,29.064 
			-700.725,33.055 -698.471,35.309 -694.481,31.318 -690.491,35.309 -688.235,33.055 -692.227,29.064 		"/>
		<path d="M-694.481,15.648c-7.408,0-13.416,6.007-13.416,13.416c0,7.41,6.008,13.417,13.416,13.417
			c7.41,0,13.418-6.007,13.418-13.417C-681.063,21.655-687.071,15.648-694.481,15.648z M-694.481,39.564
			c-5.799,0-10.498-4.701-10.498-10.5c0-5.799,4.699-10.5,10.498-10.5c5.801,0,10.5,4.701,10.5,10.5
			C-683.981,34.863-688.68,39.564-694.481,39.564z"/>
	</g>
</g>
<g id="Layer_1">
</g>
</svg>
