<?xml version="1.0" encoding="utf-8"?>
<!-- Generator: Adobe Illustrator 16.0.0, SVG Export Plug-In . SVG Version: 6.00 Build 0)  -->
<!DOCTYPE svg PUBLIC "-//W3C//DTD SVG 1.1//EN" "http://www.w3.org/Graphics/SVG/1.1/DTD/svg11.dtd">
<svg version="1.1" id="Layer_1" xmlns="http://www.w3.org/2000/svg" xmlns:xlink="http://www.w3.org/1999/xlink" x="0px" y="0px"
	 width="612px" height="792px" viewBox="0 0 612 792" enable-background="new 0 0 612 792" xml:space="preserve">
<g>
	<rect x="10.095" y="8.588" fill="none" stroke="#F2EA38" stroke-miterlimit="10" width="56.654" height="56.654"/>
	<g>
		<path d="M57.709,25.023c-1.243-1.252-2.898-1.943-4.661-1.95l-3.552-0.013c1.283-0.251,2.464-0.874,3.412-1.816
			c1.267-1.257,1.967-2.934,1.974-4.718c0.009-2.53-1.381-4.817-3.631-5.974c-0.93-0.479-1.978-0.733-3.027-0.735
			c-1.788-0.009-3.468,0.681-4.736,1.938c-1.267,1.259-1.968,2.934-1.974,4.72c-0.011,2.528,1.381,4.817,3.632,5.974
			c0.602,0.309,1.257,0.487,1.926,0.602L43.3,23.036c-3.639-0.011-6.611,2.941-6.625,6.582l-0.048,13.285
			c-0.006,1.763,0.676,3.422,1.919,4.673c0.496,0.502,1.06,0.914,1.67,1.229c0.447,0.23,0.919,0.402,1.407,0.523l-0.032,9.081
			c-0.004,1.481,0.568,2.875,1.611,3.924c0.417,0.421,0.889,0.765,1.4,1.027c0.768,0.396,1.624,0.604,2.509,0.608l1.815,0.007
			c3.054,0.011,5.547-2.466,5.557-5.519l0.032-9.096c1.165-0.277,2.241-0.85,3.111-1.716c1.253-1.243,1.947-2.897,1.952-4.661
			l0.048-13.285C59.633,27.934,58.954,26.274,57.709,25.023z M44.683,16.487c0.003-0.938,0.374-1.82,1.038-2.483
			c0.667-0.66,1.55-1.023,2.489-1.02c0.563,0.001,1.1,0.131,1.594,0.387c1.183,0.607,1.914,1.81,1.909,3.142
			c-0.003,0.938-0.373,1.82-1.037,2.483c-0.667,0.66-1.552,1.023-2.491,1.02C46.281,20.007,44.676,18.372,44.683,16.487z
			 M56.409,42.973c-0.002,0.916-0.363,1.777-1.013,2.424s-1.514,1-2.431,0.998c-0.002,0-0.005,0.002-0.007,0.002
			c-0.006,0-0.01-0.004-0.017-0.004c-0.874-0.004-1.587,0.705-1.589,1.58l-0.036,10.473c-0.005,1.305-1.072,2.365-2.379,2.361
			l-1.815-0.009c-0.63,0-1.228-0.251-1.672-0.698c-0.445-0.449-0.692-1.047-0.69-1.678l0.039-10.473
			c0.003-0.879-0.705-1.592-1.577-1.592H43.22h-0.001c-1.892-0.003-3.429-1.549-3.423-3.443l0.048-13.284
			c0.007-1.895,1.553-3.43,3.446-3.425l9.748,0.036c0.917,0.003,1.778,0.363,2.422,1.015c0.647,0.65,1.001,1.513,0.998,2.431
			L56.409,42.973z"/>
		<path d="M30.401,30.868l-2.875-0.01c1.039-0.204,1.994-0.708,2.76-1.47c1.027-1.019,1.594-2.375,1.599-3.819
			c0.009-2.047-1.119-3.898-2.939-4.835c-0.754-0.388-1.601-0.595-2.452-0.597c-1.445-0.005-2.807,0.553-3.831,1.572
			c-1.025,1.017-1.593,2.374-1.598,3.817c-0.01,2.049,1.117,3.901,2.939,4.838c0.486,0.25,1.015,0.394,1.553,0.486l-3.045-0.011
			c-2.946-0.009-5.354,2.381-5.365,5.327L17.11,46.922c-0.007,2.074,1.178,3.881,2.91,4.771c0.356,0.184,0.738,0.326,1.135,0.426
			l-0.027,7.351c-0.003,1.2,0.458,2.327,1.302,3.179c0.337,0.338,0.721,0.618,1.136,0.831c0.619,0.317,1.311,0.489,2.029,0.489
			l1.47,0.007c2.473,0.007,4.49-1.997,4.498-4.468l0.024-7.359c0.943-0.227,1.814-0.689,2.52-1.391
			c1.015-1.008,1.575-2.346,1.579-3.772l0.042-10.754C35.736,33.287,33.352,30.879,30.401,30.868z M23.632,25.536
			c0.001-0.759,0.3-1.473,0.838-2.007c0.54-0.536,1.257-0.828,2.017-0.827c0.454,0.002,0.888,0.106,1.288,0.313
			c0.959,0.491,1.55,1.466,1.547,2.543c-0.004,0.759-0.301,1.473-0.841,2.009c-0.541,0.536-1.256,0.83-2.016,0.827
			C24.921,28.389,23.625,27.064,23.632,25.536z M33.122,46.977c-0.001,0.74-0.294,1.439-0.821,1.961
			c-0.528,0.522-1.226,0.809-1.968,0.808c-0.003,0-0.005,0.001-0.009,0.001c-0.003,0-0.006-0.001-0.009-0.001
			c-0.709-0.002-1.285,0.57-1.288,1.277l-0.03,8.478c-0.003,1.057-0.866,1.914-1.922,1.912l-1.47-0.008
			c-0.508-0.001-0.992-0.2-1.354-0.564c-0.36-0.363-0.559-0.848-0.557-1.359l0.029-8.477c0.003-0.709-0.571-1.285-1.278-1.289
			c-1.533-0.003-2.775-1.254-2.77-2.786l0.038-10.753c0.005-1.533,1.257-2.776,2.791-2.773l7.89,0.032
			c1.532,0.004,2.773,1.255,2.768,2.787L33.122,46.977z"/>
	</g>
</g>
<g>
	<rect x="103.647" y="8.588" fill="none" stroke="#F2EA38" stroke-miterlimit="10" width="56.654" height="56.654"/>
	<g>
		<path d="M135.187,41c-1.034,0-2.338,0.674-3.057,1.307c-0.719-0.633-2.025-1.307-3.056-1.307c-2.254,0-3.713,2.241-3.72,4.08
			c-0.015,3.386,6.775,7.567,6.775,7.567s6.79-4.182,6.775-7.567C138.899,43.241,137.44,41,135.187,41z"/>
		<path d="M135.17,20.234c-0.975-0.501-2.071-0.768-3.17-0.771c-1.872-0.009-3.632,0.713-4.958,2.03
			c-1.327,1.318-2.061,3.072-2.067,4.941c-0.011,2.647,1.446,5.043,3.803,6.254c0.975,0.501,2.067,0.768,3.17,0.771
			c1.87,0.009,3.63-0.714,4.957-2.031c1.326-1.316,2.06-3.073,2.067-4.941C138.98,23.839,137.525,21.445,135.17,20.234z
			 M134.568,29.074c-0.699,0.692-1.626,1.072-2.609,1.069c-1.993-0.01-3.673-1.722-3.666-3.695c0.004-0.984,0.392-1.907,1.087-2.6
			c0.698-0.691,1.623-1.072,2.606-1.068c0.589,0.001,1.151,0.138,1.669,0.405c1.238,0.636,2.004,1.896,1.999,3.289
			C135.65,27.458,135.262,28.381,134.568,29.074z"/>
		<path d="M131.975,13.073c-13.147,0-23.841,10.696-23.841,23.842c0,13.148,10.693,23.843,23.841,23.843
			c13.146,0,23.837-10.695,23.837-23.843C155.812,23.769,145.121,13.073,131.975,13.073z M121.791,54.903l0.049-12.679
			c0.017-5.055,2.292-5.022,3.222-5.044l12.057,0.037c1.354,0.007,2.623,0.536,3.575,1.499c0.953,0.956,1.474,2.226,1.469,3.581
			l-0.047,12.631c-3,1.697-6.454,2.676-10.14,2.676C128.271,57.604,124.801,56.613,121.791,54.903z M145.827,52.238l0.042-9.928
			c0.009-2.346-0.896-4.551-2.545-6.21c-1.649-1.662-3.848-2.582-6.191-2.591l-12.06-0.037c-0.008,0-0.015,0-0.023,0
			c-2.091,0-6.893,0.862-6.917,8.737l-0.044,9.998c-4.167-3.787-6.804-9.23-6.804-15.292c0-11.409,9.281-20.69,20.69-20.69
			c11.407,0,20.688,9.281,20.688,20.69C152.663,42.993,150.012,48.449,145.827,52.238z"/>
	</g>
</g>
<g>
	<rect x="197.198" y="8.578" fill="none" stroke="#F2EA38" stroke-miterlimit="10" width="56.654" height="56.654"/>
	<g>
		<path d="M225.529,13.25c-8.793,0-15.917,7.125-15.917,15.915c0,4.864,2.18,9.211,5.614,12.131v4.911
			c0,1.378,1.119,2.497,2.497,2.497h0.373v6.616c0,1.378,1.12,2.494,2.496,2.494h0.625v0.25c0,1.378,1.118,2.497,2.5,2.497h3.994
			c1.378,0,2.496-1.119,2.496-2.497v-0.25h0.25c1.378,0,2.495-1.116,2.495-2.494v-6.616h0.376c1.38,0,2.497-1.119,2.497-2.497
			v-4.911c3.435-2.92,5.613-7.267,5.613-12.129C241.439,20.375,234.315,13.25,225.529,13.25z M233.044,38.982v4.852
			c0,1.38-1.121,2.496-2.495,2.496h-9.864c-1.375,0-2.492-1.116-2.492-2.496v-4.852c-2.996-2.301-4.928-5.952-4.928-10.065
			c0-6.958,5.53-12.597,12.35-12.597c6.824,0,12.357,5.639,12.357,12.597C237.972,33.03,236.036,36.682,233.044,38.982z"/>
		<path d="M226.214,18.492c-5.861,0.002-10.612,4.753-10.612,10.612c0,0.55,0.445,0.998,0.997,0.998
			c0.553,0,1.002-0.445,1.002-0.998c0-2.383,0.961-4.529,2.521-6.093c1.563-1.56,3.711-2.521,6.092-2.521
			c0.549,0,0.995-0.447,0.995-1C227.209,18.94,226.763,18.492,226.214,18.492z"/>
	</g>
</g>
<g>
	<rect x="290.75" y="8.573" fill="none" stroke="#F2EA38" stroke-miterlimit="10" width="56.655" height="56.654"/>
	<path d="M319.076,13.06c-13.145,0-23.84,10.695-23.84,23.84c0,13.147,10.695,23.843,23.84,23.843
		c13.145,0,23.84-10.695,23.84-23.843C342.916,23.755,332.221,13.06,319.076,13.06z M335.939,24.955
		c-0.975,0.287-2.01,0.653-2.936,1.346c-1.246,0.929-2.082,2.362-2.77,3.633c-0.482,0.891-0.699,1.829-0.891,2.658
		c-0.08,0.34-0.156,0.679-0.254,1.01c-0.348,1.171-0.719,2.082-1.49,2.989c-0.465,0.548-0.99,1.046-1.516,1.547
		c-0.455,0.435-0.91,0.874-1.336,1.334l-0.85,0.93c-0.666,0.731-1.33,1.463-2.033,2.158l-0.656,0.659
		c-1.232,1.245-2.506,2.534-3.893,3.099c-0.18,0.073-0.293,0.105-0.732-0.058c-1.418-0.511-2.301-1.111-3.254-2.216
		c-0.389-0.452-0.836-0.869-1.289-1.285c-0.691-0.641-1.348-1.245-1.625-1.934c-0.402-0.995-0.338-2.22-0.266-3.517l0.029-0.554
		c0.039-0.84,0.273-1.698,0.521-2.608l0.098-0.356c0.051-0.192,0.098-0.398,0.141-0.604c0.07-0.306,0.18-0.818,0.291-0.92
		c0.174-0.138,0.924-0.148,1.281-0.155l0.828-0.019c2.41-0.058,4.898-0.116,7.369-0.895c1.98-0.624,2.736-2.093,3.447-3.472
		c0.752-1.46,1.52-4.743,2.375-8.564c0.115-0.521,0.223-1.002,0.318-1.421C330.527,19.237,333.67,21.761,335.939,24.955z
		 M319.076,57.589c-11.408,0-20.689-9.279-20.689-20.689c0-11.407,9.281-20.688,20.689-20.688c1.641,0,3.229,0.212,4.76,0.575
		c-0.111,0.483-0.238,1.052-0.381,1.688c-0.551,2.463-1.473,6.588-2.145,7.891c-0.621,1.208-0.879,1.615-1.551,1.827
		c-2.041,0.645-4.203,0.695-6.494,0.75l-0.801,0.018c-0.932,0.015-2.336,0.036-3.369,0.988c-0.844,0.776-1.07,1.811-1.232,2.567
		c-0.035,0.155-0.068,0.308-0.107,0.452l-0.094,0.348c-0.283,1.036-0.574,2.104-0.633,3.291l-0.023,0.529
		c-0.084,1.513-0.178,3.227,0.488,4.874c0.543,1.343,1.535,2.259,2.41,3.066c0.363,0.333,0.727,0.662,1.039,1.028
		c1.314,1.521,2.639,2.426,4.57,3.12c0.426,0.156,0.945,0.305,1.545,0.305c0.438,0,0.922-0.079,1.445-0.293
		c1.984-0.808,3.559-2.4,4.945-3.802l0.631-0.634c0.742-0.735,1.447-1.506,2.148-2.281l0.832-0.908
		c0.383-0.413,0.793-0.804,1.203-1.195c0.582-0.558,1.184-1.133,1.738-1.785c1.191-1.405,1.717-2.817,2.107-4.135
		c0.115-0.392,0.211-0.791,0.305-1.191c0.16-0.699,0.313-1.355,0.594-1.872c0.379-0.706,1.09-2.017,1.881-2.606
		c0.666-0.498,1.58-0.753,2.551-1.024c0.055-0.017,0.107-0.036,0.166-0.051c1.369,2.763,2.162,5.861,2.162,9.148
		C339.768,48.31,330.484,57.589,319.076,57.589z"/>
</g>
<g>
	<rect x="384.301" y="8.581" fill="none" stroke="#F2EA38" stroke-miterlimit="10" width="56.654" height="56.654"/>
	<g>
		<path d="M415.172,47.098c2.738-5.112,8.434-15.753,2.301-19.44c-3.48-2.087-8.703-1.342-13.373,1.765l-0.453,0.303l-0.508,4.72
			l1.727-0.585c0.793-0.269,1.535-0.412,2.154-0.412c1.238,0,1.447,0.55,1.525,0.757c1,2.63-1.582,7.418-3.469,10.913
			c-0.826,1.541-1.609,2.992-2.068,4.172c-1.795,4.62-0.98,7.33,0.021,8.793c1.236,1.807,3.459,2.797,6.26,2.797
			c2.723,0,5.803-0.941,8.455-2.588l0.482-0.3l0.514-4.819l-1.641,0.445c-1.752,0.479-3.082,0.373-3.521-0.272
			c-0.215-0.319-0.604-1.354,0.479-4.052C414.219,48.881,414.66,48.053,415.172,47.098z M411.654,54.648
			c0.49,0.727,1.498,1.594,3.508,1.594c0.293,0,0.6-0.02,0.916-0.056l-0.043,0.413c-2.178,1.247-4.605,1.953-6.746,1.953
			c-2.012,0-3.551-0.635-4.34-1.787c-0.979-1.43-0.902-3.727,0.227-6.635c0.406-1.046,1.156-2.436,1.951-3.908
			c2.215-4.107,4.973-9.221,3.594-12.844c-0.555-1.456-1.867-2.257-3.701-2.257c-0.383,0-0.779,0.033-1.195,0.1l0.016-0.153
			c2.346-1.46,4.877-2.291,7.025-2.291c1.295,0,2.441,0.294,3.404,0.875c4.238,2.545-0.939,12.217-3.146,16.346
			c-0.59,1.102-1.016,1.897-1.229,2.432C410.797,51.168,410.715,53.266,411.654,54.648z"/>
		<path d="M417.107,12.937c-3.416,0-6.199,2.782-6.199,6.201c0,3.419,2.783,6.201,6.199,6.201c3.42,0,6.203-2.782,6.203-6.201
			C423.311,15.718,420.527,12.937,417.107,12.937z M417.107,23.013c-2.133,0-3.873-1.739-3.873-3.875
			c0-2.137,1.74-3.874,3.873-3.874c2.137,0,3.877,1.737,3.877,3.874C420.984,21.274,419.244,23.013,417.107,23.013z"/>
	</g>
</g>
<rect x="476.834" y="8.888" fill="none" stroke="#F2EA38" stroke-miterlimit="10" width="56.654" height="56.655"/>
<g>
	<polygon points="511.35,33.223 509.096,30.97 505.105,34.96 501.115,30.969 498.861,33.224 502.854,37.213 498.861,41.204 
		501.115,43.457 505.105,39.467 509.096,43.457 511.352,41.203 507.359,37.213 	"/>
	<path d="M505.105,23.797c-7.408,0-13.416,6.007-13.416,13.416c0,7.41,6.008,13.417,13.416,13.417
		c7.41,0,13.418-6.007,13.418-13.417C518.523,29.804,512.516,23.797,505.105,23.797z M505.105,47.713
		c-5.799,0-10.498-4.701-10.498-10.5s4.699-10.5,10.498-10.5c5.801,0,10.5,4.701,10.5,10.5S510.906,47.713,505.105,47.713z"/>
</g>
<g>
	<rect x="291.548" y="74.385" fill="none" stroke="#F2EA38" stroke-miterlimit="10" width="56.655" height="56.655"/>
	<path d="M319.875,89.212c-7.455,0-13.5,6.043-13.5,13.5c0,7.455,6.044,13.5,13.5,13.5c7.457,0,13.502-6.045,13.502-13.5
		C333.377,95.255,327.332,89.212,319.875,89.212z M326.064,100.112c-0.715,4.102-4.707,7.575-5.908,8.368s-2.297-0.318-2.693-1.158
		c-0.455-0.957-1.818-6.151-2.176-6.582c-0.357-0.43-1.428,0.431-1.428,0.431l-0.52-0.694c0,0,2.174-2.646,3.83-2.977
		c1.754-0.352,1.752,2.744,2.174,4.465c0.408,1.662,0.684,2.613,1.039,2.613c0.357,0,1.039-0.926,1.785-2.348
		c0.748-1.423-0.031-2.68-1.492-1.786C321.26,96.871,326.779,96.011,326.064,100.112z"/>
</g>
<g>
	<rect x="197.998" y="74.385" fill="none" stroke="#F2EA38" stroke-miterlimit="10" width="56.654" height="56.655"/>
	<path d="M226.325,89.212c-7.456,0-13.5,6.043-13.5,13.5c0,7.455,6.044,13.5,13.5,13.5s13.5-6.045,13.5-13.5
		C239.825,95.255,233.781,89.212,226.325,89.212z M222.717,105.554c-1.539,0-2.787-1.271-2.787-2.841
		c0-1.57,1.248-2.843,2.787-2.843c1.54,0,2.789,1.272,2.789,2.843C225.506,104.282,224.257,105.554,222.717,105.554z
		 M229.931,105.554c-1.54,0-2.789-1.271-2.789-2.841c0-1.57,1.249-2.843,2.789-2.843s2.788,1.272,2.788,2.843
		C232.719,104.282,231.471,105.554,229.931,105.554z"/>
</g>
<g>
	<rect x="105.303" y="74.385" fill="none" stroke="#F2EA38" stroke-miterlimit="10" width="56.654" height="56.654"/>
	<path d="M133.63,89.212c-7.456,0-13.5,6.043-13.5,13.5c0,7.455,6.044,13.5,13.5,13.5c7.456,0,13.5-6.045,13.5-13.5
		C147.13,95.255,141.085,89.212,133.63,89.212z M136.827,98.541h-2.03c-0.24,0-0.507,0.316-0.507,0.738v1.465h2.537v2.09h-2.537
		v6.273h-2.396v-6.273h-2.172v-2.09h2.172v-1.229c0-1.764,1.224-3.197,2.903-3.197h2.03V98.541z"/>
</g>
<g>
	<rect x="10.894" y="73.618" fill="none" stroke="#F2EA38" stroke-miterlimit="10" width="56.654" height="56.654"/>
	<path d="M39.221,88.446c-7.457,0-13.5,6.043-13.5,13.5c0,7.455,6.043,13.5,13.5,13.5c7.456,0,13.5-6.045,13.5-13.5
		C52.721,94.489,46.677,88.446,39.221,88.446z M44.711,99.505c0.006,0.115,0.008,0.229,0.008,0.344c0,3.514-2.675,7.566-7.565,7.566
		c-1.501,0-2.899-0.441-4.076-1.195c0.208,0.025,0.419,0.037,0.634,0.037c1.246,0,2.393-0.425,3.303-1.139
		c-1.164-0.021-2.146-0.789-2.484-1.846c0.163,0.031,0.329,0.048,0.5,0.048c0.242,0,0.477-0.032,0.7-0.093
		c-1.216-0.245-2.133-1.32-2.133-2.607c0-0.012,0-0.023,0-0.033c0.358,0.198,0.769,0.318,1.204,0.332
		c-0.714-0.477-1.183-1.291-1.183-2.213c0-0.488,0.13-0.944,0.359-1.338c1.312,1.609,3.271,2.668,5.481,2.779
		c-0.046-0.195-0.069-0.398-0.069-0.606c0-1.468,1.19-2.659,2.659-2.659c0.765,0,1.456,0.323,1.941,0.84
		c0.605-0.119,1.175-0.34,1.688-0.645c-0.199,0.62-0.62,1.142-1.169,1.471c0.538-0.064,1.05-0.207,1.527-0.418
		C45.682,98.662,45.231,99.13,44.711,99.505z"/>
</g>
</svg>
